<svg width="335" height="300" viewBox="0 0 335 300" fill="none" xmlns="http://www.w3.org/2000/svg">
<path d="M-245.075 300H-191.112L-191.7 296.178C-193.643 283.254 -204.671 273.698 -217.642 273.698H-225.325C-225.325 264.278 -218.862 256.087 -209.687 253.948C-193.869 250.308 -180.266 240.297 -170.549 227.191L-165.261 220.092L-161.962 222.732C-137.014 242.754 -115.592 272.833 -98.5082 300H-22.0387L-23.1234 292.31C-24.9764 279.295 -36.0492 269.602 -49.1104 269.602H-64.2958V228.875C-64.2958 217.954 -55.528 209.126 -44.6812 209.126H-4.14154V215.542C-4.14154 231.332 -0.390411 246.85 6.84076 260.865L23.9244 300H83.4911L83.3555 298.089C82.2708 284.346 70.8818 273.743 57.1877 273.743H49.2787C49.2787 263.323 51.3576 252.674 57.1426 243.983C63.6054 234.336 86.5644 209.126 86.5644 209.126L89.0049 213.949C97.5015 230.786 109.93 245.257 125.206 256.133L178.445 300H254.915L253.83 292.31C251.977 279.295 240.905 269.602 227.843 269.602H209.359L188.298 243.482C178.671 231.56 171.531 217.817 167.237 203.119L160.774 180.958H184.863C197.156 180.958 209.133 184.78 219.166 191.925L231.911 200.98C236.521 191.105 248.181 186.828 257.988 191.469L281.489 202.527C291.116 207.305 302.641 205.895 310.776 198.887L335 176.089L308.154 144.28C303.183 138.41 303.906 129.582 309.781 124.576L285.105 95.3164V84.2131C285.105 79.435 283.433 74.839 280.36 71.1985L276.97 67.1941L271.321 71.9721C267.705 75.021 263.14 76.7047 258.44 76.7047H255.141C255.141 71.9266 253.469 67.3306 250.395 63.6901L243.571 55.5902L231.007 66.2384L155.667 18.4577C119.059 -4.75008 72.6895 -6.29726 35.0423 15.0903C14.2527 26.8762 -10.7853 28.6509 -33.0211 19.8684C-95.1639 -4.65906 -166.029 16.5465 -208.06 68.6957L-241.188 109.833C-234.861 115.703 -233.415 125.214 -237.798 132.722C-246.928 148.421 -250.363 166.76 -250.091 184.962C-249.775 206.623 -254.611 228.056 -264.192 247.441L-266 251.082V256.542C-266 273.516 -258.227 289.534 -244.939 300" fill="#0E1F3D"/>
</svg>
