<?xml version="1.0" encoding="utf-8"?>
<!-- Generator: Adobe Illustrator 28.1.0, SVG Export Plug-In . SVG Version: 6.00 Build 0)  -->
<svg version="1.1" id="CS-Logo_x5F_Primary" xmlns="http://www.w3.org/2000/svg" xmlns:xlink="http://www.w3.org/1999/xlink"
	 x="0px" y="0px" viewBox="0 0 544.7 153.2" style="enable-background:new 0 0 544.7 153.2;" xml:space="preserve">
<style type="text/css">
	.st0{fill:#76777A;}
	.st1{fill:#DC1E34;}
</style>
<g id="Primary">
	<g>
		<g>
			<path class="st0" d="M193.6,64.1l-7.3,4.5c-2.4-3.7-6.3-5.9-11-5.9c-7.7,0-13.4,5.7-13.4,13.9c0,8.5,5.9,13.9,13.4,13.9
				c4.7,0,8.5-2.1,11.1-5.8l6.9,5c-3.8,5.5-10.2,9-18,9c-13.1,0-22.4-9.3-22.4-22.1c0-12.8,9.2-22.1,22.4-22.1
				C183.2,54.5,190.1,58.1,193.6,64.1"/>
			<path class="st0" d="M225.8,83.1c0,0.9-0.1,2-0.2,2.7h-20.9c0.9,4.3,3.8,6.1,7.6,6.1c2.6,0,5.3-1,7.5-2.8l4.7,5.1
				c-3.3,3.1-7.6,4.5-12.6,4.5c-9,0-15.3-6.1-15.3-15.4c0-9.3,6.1-15.6,14.9-15.6C220,67.6,225.8,73.9,225.8,83.1 M204.8,80.4h13
				c-0.7-3.8-3-5.9-6.4-5.9C207.7,74.5,205.5,76.7,204.8,80.4"/>
			<path class="st0" d="M252.7,71.5V54.1h7.9v43.8h-7.8v-3.3c-1.9,2.4-4.8,4-8.8,4c-8.1,0-14.3-6.7-14.3-15.5s6.1-15.5,14.3-15.5
				C248,67.6,250.8,69.2,252.7,71.5 M237.9,83.1c0,4.5,2.9,8.1,7.6,8.1c4.5,0,7.6-3.5,7.6-8.1c0-4.7-3.1-8.1-7.6-8.1
				C240.8,75,237.9,78.6,237.9,83.1"/>
			<path class="st0" d="M296.4,97.9h-7.8v-3.3c-1.9,2.4-4.8,4-8.8,4c-8.1,0-14.3-6.7-14.3-15.5s6.1-15.5,14.3-15.5
				c4,0,6.9,1.6,8.8,4v-3.3h7.8V97.9z M273.7,83.1c0,4.5,2.9,8.1,7.6,8.1c4.5,0,7.6-3.5,7.6-8.1c0-4.7-3.1-8.1-7.6-8.1
				C276.6,75,273.7,78.6,273.7,83.1"/>
			<path class="st0" d="M323.3,68.3l-1.2,7.9c-1.3-0.6-3.2-0.9-4.8-0.9c-3.7,0-6.2,2.3-6.2,6.6v16.1h-7.9V68.4h7.7v3.2
				c1.9-2.8,4.7-4,8.3-4C320.9,67.6,322.2,67.9,323.3,68.3"/>
			<path class="st0" d="M348.1,76.6c-2.3-1.2-6.1-2.4-9.4-2.4c-3,0-4.5,1.1-4.5,2.7c0,1.7,2.1,2.1,4.8,2.5l2.6,0.4
				c6.4,1,9.9,3.8,9.9,8.8c0,6.1-5,10-13.5,10c-4,0-9.3-0.8-13.1-3.5l3.1-6c2.5,1.7,5.6,2.9,10,2.9c3.7,0,5.4-1,5.4-2.8
				c0-1.4-1.5-2.2-4.9-2.7l-2.4-0.3c-6.8-0.9-10.2-3.9-10.2-8.9c0-6.1,4.7-9.6,12.4-9.6c4.7,0,8.4,0.9,12.3,2.8L348.1,76.6z"/>
			<path class="st0" d="M400.1,66c-3.3-2.1-7.4-3.6-12.1-3.6c-4.8,0-8.1,1.9-8.1,5.1c0,3.1,3.7,4.1,8.8,4.9l2.4,0.4
				c7.6,1.2,13.6,4.5,13.6,11.9c0,9.4-8.3,13.9-17.4,13.9c-6.4,0-13.4-1.9-17.9-5.6l4.4-6.8c3.1,2.5,8.1,4.6,13.6,4.6
				c4.7,0,8.4-1.9,8.4-5.1c0-2.9-3.1-4-9-5l-2.7-0.4c-7.5-1.2-13-4.5-13-12.2c0-8.9,7.9-13.5,17-13.5c6,0,10.9,1.3,16.3,4.5
				L400.1,66z"/>
			<path class="st0" d="M419.1,58.8c0,2.9-2.2,5-5.1,5c-2.9,0-5-2.2-5-5c0-2.9,2.2-5.1,5-5.1C416.9,53.7,419.1,55.9,419.1,58.8"/>
		</g>
		<rect x="410.1" y="68.4" class="st0" width="7.9" height="29.5"/>
		<g>
			<path class="st0" d="M452.7,79.1v18.8h-7.9V81.7c0-4.3-2.1-6.6-5.7-6.6c-3.4,0-6.2,2.2-6.2,6.7v16.1h-7.9V68.4h7.7v3.5
				c2.1-3.1,5.3-4.3,8.7-4.3C448,67.6,452.7,72.3,452.7,79.1"/>
			<path class="st0" d="M488.3,97.9h-7.8v-3.3c-1.9,2.4-4.8,4-8.8,4c-8.1,0-14.3-6.7-14.3-15.5s6.1-15.5,14.3-15.5
				c4,0,6.9,1.6,8.8,4v-3.3h7.8V97.9z M465.6,83.1c0,4.5,2.9,8.1,7.6,8.1c4.5,0,7.6-3.5,7.6-8.1s-3.1-8.1-7.6-8.1
				C468.5,75,465.6,78.6,465.6,83.1"/>
			<path class="st0" d="M504.1,58.8c0,2.9-2.2,5-5.1,5c-2.9,0-5-2.2-5-5c0-2.9,2.2-5.1,5-5.1C501.9,53.7,504.1,55.9,504.1,58.8"/>
		</g>
		<rect x="495.1" y="68.4" class="st0" width="7.9" height="29.5"/>
	</g>
	<g>
		<path class="st1" d="M67.9,84c-4,0-8.1-1.5-11.1-4.6c-6.1-6.1-6.1-16.1,0-22.2s16.1-6.1,22.2,0l3.3,3.3L77.7,65l-3.3-3.3
			c-3.6-3.6-9.5-3.6-13,0c-3.6,3.6-3.6,9.5,0,13c1.7,1.7,4.1,2.7,6.5,2.7c2.5,0,4.8-1,6.5-2.7l4.6,4.6C76,82.4,71.9,84,67.9,84
			 M67.9,95.9c-7.4,0-14.3-2.9-19.5-8.1c-5.2-5.2-8.1-12.2-8.1-19.5s2.9-14.3,8.1-19.5c5.2-5.2,12.2-8.1,19.5-8.1s14.3,2.9,19.5,8.1
			l3.3,3.3l-4.6,4.6l-3.3-3.3c-4-4-9.3-6.2-14.9-6.2s-11,2.2-14.9,6.2c-4,4-6.2,9.3-6.2,14.9s2.2,11,6.2,14.9c4,4,9.3,6.2,14.9,6.2
			s11-2.2,14.9-6.2l6-6l4.6,4.6l-6,6C82.2,93,75.3,95.9,67.9,95.9 M103.3,100.7c-4,0-8.1-1.5-11.1-4.6l-3.3-3.3l4.6-4.6l3.3,3.3
			c3.6,3.6,9.5,3.6,13,0c3.6-3.6,3.6-9.5,0-13c-3.6-3.6-9.5-3.6-13,0l-4.6-4.6c3-3,6.9-4.6,11.1-4.6c4.2,0,8.2,1.6,11.1,4.6
			c6.1,6.1,6.1,16.1,0,22.2C111.3,99.1,107.3,100.7,103.3,100.7 M103.3,112.6c-7.4,0-14.3-2.9-19.5-8.1l-3.3-3.3l4.6-4.6l3.3,3.3
			c4,4,9.3,6.2,14.9,6.2s11-2.2,14.9-6.2c4-4,6.2-9.3,6.2-14.9c0-5.6-2.2-11-6.2-14.9c-8.2-8.2-21.7-8.2-29.9,0l-6,6l-4.6-4.6l6-6
			c10.8-10.8,28.3-10.8,39.1,0c5.2,5.2,8.1,12.2,8.1,19.5c0,7.4-2.9,14.3-8.1,19.5C117.6,109.7,110.7,112.6,103.3,112.6"/>
	</g>
</g>
</svg>
