<?xml version="1.0" encoding="utf-8"?>
<!-- Generator: Adobe Illustrator 28.1.0, SVG Export Plug-In . SVG Version: 6.00 Build 0)  -->
<svg version="1.1" id="CS-Logo_x5F_Stacked" xmlns="http://www.w3.org/2000/svg" xmlns:xlink="http://www.w3.org/1999/xlink"
	 x="0px" y="0px" viewBox="0 0 289.3 127.3" style="enable-background:new 0 0 289.3 127.3;" xml:space="preserve">
<style type="text/css">
	.st0{fill:#76777A;}
	.st1{fill:#76777A;}
</style>
<g id="Stacked">
	<g>
		<g>
			<path class="st0" d="M154.2,34.4l-5,3c-1.6-2.5-4.3-4-7.5-4c-5.3,0-9.2,3.9-9.2,9.5c0,5.8,4,9.5,9.2,9.5c3.2,0,5.8-1.4,7.6-4
				l4.7,3.4c-2.6,3.8-6.9,6.1-12.2,6.1c-8.9,0-15.2-6.3-15.2-15s6.3-15,15.2-15C147.1,27.9,151.8,30.4,154.2,34.4"/>
			<path class="st0" d="M176.1,47.4c0,0.6,0,1.4-0.1,1.8h-14.2c0.6,2.9,2.6,4.2,5.2,4.2c1.7,0,3.6-0.7,5.1-1.9l3.2,3.5
				c-2.3,2.1-5.2,3-8.6,3c-6.1,0-10.4-4.2-10.4-10.5c0-6.3,4.1-10.6,10.1-10.6C172.2,36.9,176.1,41.1,176.1,47.4 M161.8,45.5h8.9
				c-0.5-2.6-2.1-4-4.4-4C163.8,41.5,162.3,43,161.8,45.5"/>
			<path class="st0" d="M224.2,57.5h-5.3v-2.2c-1.3,1.6-3.3,2.7-6,2.7c-5.5,0-9.7-4.5-9.7-10.6s4.2-10.6,9.7-10.6
				c2.8,0,4.7,1.1,6,2.8v-2.2h5.3V57.5z M208.7,47.4c0,3.1,2,5.5,5.2,5.5c3.1,0,5.2-2.4,5.2-5.5c0-3.2-2.1-5.5-5.2-5.5
				C210.7,41.9,208.7,44.3,208.7,47.4"/>
			<path class="st0" d="M242.5,37.3l-0.8,5.4c-0.9-0.4-2.2-0.6-3.3-0.6c-2.5,0-4.2,1.5-4.2,4.5v10.9h-5.4V37.4h5.2v2.2
				c1.3-1.9,3.2-2.7,5.7-2.7C240.8,36.9,241.8,37,242.5,37.3"/>
			<path class="st0" d="M259.4,43c-1.6-0.8-4.1-1.6-6.4-1.6c-2.1,0-3.1,0.7-3.1,1.8c0,1.2,1.4,1.4,3.3,1.7l1.8,0.3
				c4.3,0.7,6.8,2.6,6.8,6c0,4.1-3.4,6.8-9.2,6.8c-2.7,0-6.3-0.5-8.9-2.4l2.1-4.1c1.7,1.1,3.8,2,6.8,2c2.5,0,3.7-0.7,3.7-1.9
				c0-1-1-1.5-3.3-1.8l-1.6-0.2c-4.6-0.6-6.9-2.7-6.9-6.1c0-4.1,3.2-6.6,8.5-6.6c3.2,0,5.7,0.6,8.4,1.9L259.4,43z"/>
			<path class="st0" d="M168.3,72.9c-2.3-1.4-5.1-2.5-8.2-2.5c-3.3,0-5.5,1.3-5.5,3.5c0,2.1,2.5,2.8,6,3.4l1.6,0.3
				c5.2,0.8,9.2,3.1,9.2,8.1c0,6.4-5.6,9.4-11.9,9.4c-4.4,0-9.1-1.3-12.2-3.8l3-4.7c2.1,1.7,5.5,3.1,9.2,3.1c3.2,0,5.7-1.3,5.7-3.5
				c0-2-2.1-2.8-6.2-3.4l-1.8-0.3c-5.1-0.8-8.8-3.1-8.8-8.3c0-6,5.4-9.2,11.6-9.2c4.1,0,7.4,0.9,11.1,3.1L168.3,72.9z"/>
			<path class="st0" d="M181.3,68c0,1.9-1.5,3.4-3.5,3.4c-1.9,0-3.4-1.5-3.4-3.4s1.5-3.5,3.4-3.5C179.8,64.5,181.3,66.1,181.3,68"/>
		</g>
		<rect x="175.2" y="74.6" class="st0" width="5.4" height="20.1"/>
		<g>
			<path class="st0" d="M204.2,81.8v12.8h-5.4v-11c0-2.9-1.4-4.5-3.9-4.5c-2.3,0-4.2,1.5-4.2,4.5v11h-5.4V74.6h5.3v2.4
				c1.4-2.1,3.6-2.9,5.9-2.9C200.9,74,204.2,77.2,204.2,81.8"/>
			<path class="st0" d="M228.4,94.6h-5.3v-2.2c-1.3,1.6-3.3,2.7-6,2.7c-5.5,0-9.7-4.5-9.7-10.6s4.2-10.6,9.7-10.6
				c2.8,0,4.7,1.1,6,2.8v-2.2h5.3V94.6z M212.9,84.6c0,3.1,2,5.5,5.2,5.5c3.1,0,5.2-2.4,5.2-5.5s-2.1-5.5-5.2-5.5
				C214.9,79.1,212.9,81.5,212.9,84.6"/>
			<path class="st0" d="M239.1,68c0,1.9-1.5,3.4-3.5,3.4c-1.9,0-3.4-1.5-3.4-3.4s1.5-3.5,3.4-3.5C237.6,64.5,239.1,66.1,239.1,68"/>
		</g>
		<path class="st0" d="M194.4,39.5V27.6h5.4v29.8h-5.3v-2.2c-1.3,1.6-3.3,2.7-6,2.7c-5.5,0-9.7-4.5-9.7-10.6c0-6,4.2-10.6,9.7-10.6
			C191.2,36.9,193.1,37.9,194.4,39.5 M184.3,47.4c0,3.1,2,5.5,5.2,5.5c3.1,0,5.2-2.4,5.2-5.5c0-3.2-2.1-5.5-5.2-5.5
			C186.3,41.9,184.3,44.3,184.3,47.4"/>
		<rect x="233" y="74.6" class="st0" width="5.4" height="20.1"/>
	</g>
	<g>
		<path class="st1" d="M54.9,71c-4,0-8.1-1.5-11.1-4.6c-6.1-6.1-6.1-16.1,0-22.2s16.1-6.1,22.2,0l3.3,3.3l-4.6,4.6l-3.3-3.3
			c-3.6-3.6-9.5-3.6-13,0c-3.6,3.6-3.6,9.5,0,13c1.7,1.7,4.1,2.7,6.5,2.7c2.5,0,4.8-1,6.5-2.7l4.6,4.6C63,69.5,59,71,54.9,71
			 M54.9,82.9c-7.4,0-14.3-2.9-19.5-8.1c-5.2-5.2-8.1-12.2-8.1-19.5s2.9-14.3,8.1-19.5c5.2-5.2,12.2-8.1,19.5-8.1s14.3,2.9,19.5,8.1
			l3.3,3.3l-4.6,4.6l-3.3-3.3c-4-4-9.3-6.2-14.9-6.2S44,36.3,40,40.3c-4,4-6.2,9.3-6.2,14.9s2.2,11,6.2,14.9c4,4,9.3,6.2,14.9,6.2
			s11-2.2,14.9-6.2l6-6l4.6,4.6l-6,6C69.3,80,62.3,82.9,54.9,82.9 M90.3,87.7c-4,0-8.1-1.5-11.1-4.6l-3.3-3.3l4.6-4.6l3.3,3.3
			c3.6,3.6,9.5,3.6,13,0c3.6-3.6,3.6-9.5,0-13c-3.6-3.6-9.5-3.6-13,0l-4.6-4.6c3-3,6.9-4.6,11.1-4.6c4.2,0,8.2,1.6,11.1,4.6
			c6.1,6.1,6.1,16.1,0,22.2C98.4,86.2,94.4,87.7,90.3,87.7 M90.3,99.6c-7.4,0-14.3-2.9-19.5-8.1l-3.3-3.3l4.6-4.6l3.3,3.3
			c4,4,9.3,6.2,14.9,6.2s11-2.2,14.9-6.2c4-4,6.2-9.3,6.2-14.9s-2.2-11-6.2-14.9c-8.2-8.2-21.7-8.2-29.9,0l-6,6l-4.6-4.6l6-6
			c10.8-10.8,28.3-10.8,39.1,0c5.2,5.2,8.1,12.2,8.1,19.5s-2.9,14.3-8.1,19.5C104.7,96.8,97.7,99.6,90.3,99.6"/>
	</g>
</g>
</svg>
