<?xml version="1.0" encoding="utf-8"?>
<svg viewBox="1685.651 -738.176 3249.7402 2670.9302" width="3249.7402" height="2670.9302" xmlns="http://www.w3.org/2000/svg">
  <path class="fil0" d="M 3377.411 -645.186 C 3388.081 -645.186 3396.721 -653.826 3396.721 -664.496 C 3396.721 -675.166 3388.081 -683.806 3377.411 -683.806 C 3366.741 -683.806 3358.101 -675.156 3358.101 -664.496 C 3358.101 -653.826 3366.751 -645.186 3377.411 -645.186 Z M 3380.691 -624.076 C 3370.291 -624.076 3361.861 -615.646 3361.861 -605.246 C 3361.861 -594.846 3370.291 -586.426 3380.691 -586.426 C 3391.081 -586.426 3399.521 -594.856 3399.521 -605.246 C 3399.521 -615.646 3391.091 -624.076 3380.691 -624.076 Z M 3443.841 -552.326 C 3436.541 -552.326 3430.621 -546.406 3430.621 -539.096 C 3430.621 -531.796 3436.541 -525.876 3443.841 -525.876 C 3451.141 -525.876 3457.061 -531.796 3457.061 -539.096 C 3457.061 -546.406 3451.141 -552.326 3443.841 -552.326 Z M 3371.331 -565.546 C 3364.031 -565.546 3358.111 -559.626 3358.111 -552.326 C 3358.111 -545.026 3364.031 -539.096 3371.331 -539.096 C 3378.641 -539.096 3384.551 -545.026 3384.551 -552.326 C 3384.551 -559.626 3378.641 -565.546 3371.331 -565.546 Z M 3459.351 -634.586 C 3471.011 -634.586 3480.461 -644.036 3480.461 -655.696 C 3480.461 -667.346 3471.011 -676.806 3459.351 -676.806 C 3447.691 -676.806 3438.241 -667.346 3438.241 -655.696 C 3438.241 -644.036 3447.691 -634.586 3459.351 -634.586 Z M 3415.561 -738.176 C 3405.161 -738.176 3396.731 -729.746 3396.731 -719.356 C 3396.731 -708.956 3405.161 -700.526 3415.561 -700.526 C 3425.951 -700.526 3434.391 -708.956 3434.391 -719.356 C 3434.391 -729.746 3425.961 -738.176 3415.561 -738.176 Z M 3478.701 -594.656 C 3478.701 -584.266 3470.271 -575.826 3459.871 -575.826 C 3449.471 -575.826 3441.041 -584.256 3441.041 -594.656 C 3441.041 -605.056 3449.471 -613.486 3459.871 -613.486 C 3470.261 -613.486 3478.701 -605.056 3478.701 -594.656 Z M 3213.131 -259.526 C 3203.041 -255.906 3230.671 -233.136 3245.441 -236.746 C 3256.581 -239.476 3268.491 -242.136 3295.111 -280.726 C 3435.651 -484.536 3428.311 -635.726 3424.881 -659.476 C 3422.121 -678.656 3416.531 -685.466 3416.821 -661.396 C 3416.891 -655.316 3414.311 -491.396 3275.611 -301.046 C 3261.681 -281.926 3229.871 -265.536 3213.141 -259.526 L 3213.131 -259.526 Z M 3078.691 -270.306 C 3111.441 -266.866 3149.741 -276.526 3184.321 -258.066 C 3168.081 -296.196 3151.361 -304.606 3131.261 -319.026 C 3099.601 -341.726 3022.511 -361.486 2986.001 -372.206 C 3043.471 -361.836 3124.031 -342.396 3155.221 -331.456 C 3146.971 -359.616 3108.061 -393.906 3108.061 -393.906 C 3155.221 -374.606 3211.221 -317.016 3225.041 -297.816 C 3225.041 -297.826 3225.041 -297.846 3225.041 -297.856 C 3225.041 -297.846 3225.041 -297.826 3225.051 -297.816 C 3237.401 -347.836 3214.901 -437.416 3215.891 -438.486 C 3211.641 -484.386 3243.461 -341.946 3248.411 -379.056 C 3253.221 -414.986 3249.091 -473.496 3242.761 -510.316 C 3236.361 -547.486 3235.531 -574.866 3216.761 -620.276 C 3246.801 -566.706 3251.961 -535.506 3262.881 -475.256 C 3265.181 -462.546 3269.551 -438.746 3269.551 -425.826 C 3267.981 -413.266 3289.781 -446.276 3301.361 -504.786 C 3314.771 -468.826 3261.731 -340.706 3265.731 -323.186 C 3293.801 -376.256 3329.141 -434.666 3333.001 -517.556 C 3335.311 -567.346 3351.231 -626.766 3321.971 -647.256 C 3305.541 -658.766 3290.411 -710.126 3269.411 -708.376 C 3241.751 -706.076 3222.921 -721.486 3198.951 -732.516 C 3170.341 -745.676 3144.511 -722.986 3138.051 -695.056 C 3135.901 -685.736 3133.451 -675.146 3128.611 -665.516 C 3124.621 -657.566 3123.541 -647.866 3104.581 -644.186 C 3094.421 -642.226 3079.261 -642.896 3076.461 -634.206 C 3074.831 -629.136 3049.381 -606.606 3046.331 -604.326 C 3026.951 -589.796 3047.651 -555.246 3069.221 -541.866 C 3091.641 -527.966 3131.501 -503.976 3146.541 -488.276 C 3168.041 -465.846 3182.911 -435.296 3194.371 -403.426 C 3179.711 -429.526 3155.681 -456.376 3113.051 -485.496 C 3071.331 -513.996 3029.851 -538.426 3003.261 -524.436 C 2992.981 -519.026 2973.541 -520.496 2967.931 -517.086 C 2959.911 -512.206 2940.711 -487.026 2932.581 -482.586 C 2915.991 -473.516 2896.621 -470.496 2879.571 -456.586 C 2868.251 -447.346 2844.741 -411.706 2841.701 -388.106 C 2838.401 -362.416 2860.861 -363.696 2850.921 -344.526 C 2835.651 -315.076 2826.911 -304.796 2844.051 -278.996 C 2849.881 -270.206 2864.441 -252.606 2885.061 -243.476 C 2910.171 -232.366 2945.361 -247.776 2984.871 -265.706 C 3026.911 -284.776 3038.371 -274.556 3078.691 -270.306 Z M 3605.081 -187.926 C 3591.431 -202.866 3573.811 -212.756 3553.471 -227.586 C 3518.541 -253.066 3446.861 -263.166 3392.431 -269.026 C 3442.071 -271.856 3488.371 -283.746 3553.171 -254.326 C 3588.001 -238.206 3609.321 -230.826 3634.541 -245.596 C 3664.171 -262.956 3654.711 -296.086 3663.301 -326.376 C 3667.061 -339.656 3666.101 -349.986 3653.901 -361.546 C 3645.951 -369.076 3640.361 -374.076 3636.271 -390.196 C 3631.711 -408.156 3645.951 -438.266 3647.571 -446.696 C 3650.991 -464.506 3654.941 -479.316 3632.611 -484.346 C 3620.901 -486.976 3606.571 -484.556 3597.521 -492.376 C 3578.051 -509.186 3572.561 -483.216 3549.691 -508.306 C 3542.211 -516.506 3530.381 -523.226 3514.101 -526.916 C 3494.541 -531.356 3424.271 -471.286 3414.861 -453.336 C 3408.951 -442.066 3393.621 -408.756 3386.661 -396.946 C 3371.091 -370.476 3371.921 -365.756 3353.461 -343.566 C 3447.471 -386.996 3481.081 -395.726 3573.261 -395.356 C 3487.191 -387.436 3422.131 -362.016 3346.151 -313.556 C 3333.361 -305.396 3460.491 -358.726 3536.841 -315.816 C 3474.131 -327.776 3338.071 -270.476 3358.651 -269.026 C 3364.581 -268.606 3370.401 -268.456 3376.141 -268.486 C 3395.741 -260.856 3457.771 -237.446 3469.941 -199.326 C 3447.831 -213.256 3374.941 -245.186 3311.791 -234.866 C 3409.021 -222.566 3478.241 -160.166 3519.991 -19.346 C 3474.021 -120.246 3359.591 -212.536 3291.401 -211.766 C 3309.211 -198.546 3318.031 -190.896 3330.861 -181.896 C 3358.271 -162.656 3364.581 -136.876 3367.001 -103.306 C 3368.521 -82.176 3367.871 -50.606 3353.901 -19.976 C 3369.241 1.894 3375.601 7.434 3396.501 32.314 C 3411.801 50.514 3430.761 60.484 3448.241 57.734 C 3464.361 55.194 3470.801 61.914 3484.881 63.114 C 3493.381 63.844 3511.701 63.654 3519.431 62.634 C 3543.721 59.444 3535.021 46.024 3542.301 39.434 C 3554.531 28.364 3566.971 40.194 3576.111 28.264 C 3586.541 14.664 3593.401 -0.336 3623.071 -1.636 C 3642.131 -2.476 3674.491 -15.316 3657.621 -49.496 C 3652.601 -59.656 3666.301 -83.486 3669.371 -97.436 C 3674.411 -120.376 3617.271 -174.546 3605.061 -187.916 L 3605.081 -187.926 Z M 3343.821 -127.766 C 3347.421 -101.966 3348.001 -75.656 3330.951 -43.876 C 3305.871 2.904 3307.521 8.314 3291.421 57.244 C 3271.941 116.454 3235.531 82.124 3206.131 117.734 C 3157.171 177.034 3078.851 135.024 3059.021 117.694 C 2982.591 50.914 2996.201 114.014 2943.941 68.914 C 2932.731 59.244 2927.241 43.324 2924.051 21.024 C 2918.141 -20.336 2932.771 -26.276 2938.551 -61.996 C 2945.221 -103.256 2951.051 -93.966 2926.081 -129.986 C 2913.751 -147.776 2911.851 -181.926 2920.041 -203.236 C 2930.911 -231.506 2990.931 -251.036 3024.231 -253.226 C 3037.231 -254.086 3079.561 -258.516 3118.141 -247.206 C 3126.971 -244.626 3053.141 -248.166 3015.551 -208.396 C 3107.371 -239.726 3164.871 -236.276 3172.431 -226.466 C 3167.661 -219.276 3114.061 -200.136 3080.251 -151.836 C 3154.311 -199.326 3144.831 -184.656 3130.471 -163.356 C 3090.881 -104.636 3075.311 -34.836 3069.901 58.664 C 3100.941 -93.266 3161.391 -178.596 3196.821 -193.606 C 3211.031 -199.626 3180.021 -149.716 3168.521 -80.676 C 3203.571 -170.276 3238.581 -195.696 3258.541 -202.906 C 3262.081 -204.186 3306.781 -164.736 3267.161 -53.346 C 3312.381 -105.106 3293.571 -190.346 3298.581 -186.346 C 3316.541 -171.996 3341.361 -145.466 3343.821 -127.766 Z M 4410.551 1789.624 L 4413.641 1789.624 C 4417.241 1789.624 4420.151 1788.424 4420.151 1785.514 C 4420.151 1782.944 4418.261 1781.224 4414.151 1781.224 C 4412.441 1781.224 4411.241 1781.394 4410.551 1781.574 L 4410.551 1789.634 L 4410.551 1789.624 Z M 4410.381 1805.564 L 4403.871 1805.564 L 4403.871 1777.454 C 4406.441 1776.944 4410.041 1776.604 4414.671 1776.604 C 4419.981 1776.604 4422.381 1777.454 4424.441 1778.664 C 4425.991 1779.864 4427.191 1782.094 4427.191 1784.834 C 4427.191 1787.924 4424.781 1790.324 4421.361 1791.344 L 4421.361 1791.694 C 4424.101 1792.714 4425.641 1794.784 4426.501 1798.554 C 4427.361 1802.834 4427.871 1804.554 4428.561 1805.574 L 4421.521 1805.574 C 4420.671 1804.544 4420.151 1801.974 4419.291 1798.724 C 4418.781 1795.634 4417.061 1794.264 4413.461 1794.264 L 4410.371 1794.264 L 4410.371 1805.574 L 4410.381 1805.564 Z M 4393.071 1790.824 C 4393.071 1803.344 4402.321 1813.284 4415.011 1813.284 C 4427.361 1813.284 4436.441 1803.344 4436.441 1791.004 C 4436.441 1778.484 4427.361 1768.374 4414.841 1768.374 C 4402.321 1768.374 4393.081 1778.484 4393.081 1790.824 L 4393.071 1790.824 Z M 4443.641 1790.824 C 4443.641 1806.764 4431.121 1819.284 4414.841 1819.284 C 4398.731 1819.284 4385.871 1806.764 4385.871 1790.824 C 4385.871 1775.234 4398.731 1762.714 4414.841 1762.714 C 4431.121 1762.714 4443.641 1775.234 4443.641 1790.824 Z M 2164.901 1324.184 L 2164.901 1027.474 C 2164.901 1001.614 2161.771 974.974 2151.581 949.114 L 2322.511 949.114 C 2312.321 974.974 2309.191 1001.614 2309.191 1027.474 L 2309.191 1324.184 C 2309.191 1350.034 2312.321 1376.684 2322.511 1402.534 L 2151.581 1402.534 C 2161.771 1376.674 2164.901 1350.034 2164.901 1324.184 Z M 1940.781 1276.054 C 1931.301 1284.324 1918.911 1288.934 1895.901 1288.934 L 1842.261 1288.934 L 1842.261 1188.624 L 1895.901 1188.624 C 1919.101 1188.624 1931.651 1192.254 1941.131 1200.134 C 1950.901 1208.264 1955.881 1220.914 1955.881 1238.764 C 1955.881 1254.534 1950.781 1267.324 1940.781 1276.054 Z M 1842.261 1013.104 L 1885.741 1013.104 C 1904.721 1013.104 1914.991 1016.124 1922.741 1022.724 C 1930.741 1029.524 1934.811 1040.094 1934.811 1055.024 C 1934.811 1068.194 1930.631 1078.884 1922.461 1086.174 C 1914.701 1093.094 1904.551 1096.934 1885.731 1096.934 L 1842.251 1096.934 L 1842.251 1013.094 L 1842.261 1013.104 Z M 2105.651 1256.004 C 2105.651 1187.834 2068.041 1145.524 2021.801 1132.984 C 2060.981 1114.964 2075.871 1068.734 2075.871 1028.774 C 2075.871 950.414 2020.231 901.054 1927.781 901.054 L 1685.651 901.054 C 1695.831 926.914 1698.971 953.554 1698.971 979.404 L 1698.971 1324.194 C 1698.971 1350.044 1695.831 1376.694 1685.651 1402.544 L 1930.911 1402.544 C 2042.961 1402.544 2105.651 1345.344 2105.651 1256.004 Z M 2123.821 1683.064 L 2113.291 1690.534 C 2108.861 1693.684 2104.991 1697.554 2101.851 1701.974 L 2094.361 1712.514 C 2091.741 1716.204 2086.251 1716.204 2083.621 1712.514 L 2076.131 1701.974 C 2073.001 1697.544 2069.121 1693.684 2064.691 1690.534 L 2054.161 1683.064 C 2050.461 1680.434 2050.461 1674.944 2054.161 1672.314 L 2064.691 1664.834 C 2069.121 1661.684 2072.991 1657.824 2076.131 1653.394 L 2083.621 1642.854 C 2086.251 1639.164 2091.731 1639.164 2094.361 1642.854 L 2101.851 1653.394 C 2104.991 1657.824 2108.851 1661.694 2113.291 1664.834 L 2123.821 1672.314 C 2127.511 1674.944 2127.511 1680.434 2123.821 1683.064 Z M 1712.391 663.604 L 1712.391 113.914 C 1712.391 72.694 1707.401 30.214 1691.151 -10.996 L 1960.991 -10.996 C 1949.751 30.214 1944.751 72.694 1944.751 113.914 L 1944.751 292.974 L 2068.441 140.164 C 2110.921 88.944 2128.401 47.704 2122.171 -10.996 L 2450.721 -10.996 C 2412.001 13.964 2384.131 43.954 2345.391 90.174 L 2149.871 316.044 C 2213.321 363.764 2255.161 445.274 2309.111 600.844 C 2358.181 742.344 2436.901 795.784 2521.481 794.724 C 2466.861 850.724 2401.941 875.804 2327.011 875.804 C 2189.881 875.804 2127.941 806.824 2081.181 665.974 C 2052.331 579.084 2028.771 512.674 1994.431 471.964 L 1944.751 526.134 L 1944.751 663.604 C 1944.751 704.854 1949.751 747.304 1960.991 788.544 L 1691.151 788.544 C 1707.391 747.304 1712.391 704.854 1712.391 663.604 Z M 4896.681 1364.294 L 4892.701 1364.294 L 4892.701 1353.904 C 4893.591 1353.684 4895.131 1353.464 4897.351 1353.464 C 4902.661 1353.464 4905.091 1355.674 4905.091 1358.994 C 4905.091 1362.754 4901.331 1364.304 4896.681 1364.304 L 4896.681 1364.294 Z M 4906.631 1366.954 L 4906.631 1366.504 C 4911.051 1365.184 4914.151 1362.084 4914.151 1358.104 C 4914.151 1354.564 4912.591 1351.694 4910.611 1350.144 C 4907.961 1348.594 4904.851 1347.494 4898.001 1347.494 C 4892.031 1347.494 4887.391 1347.934 4884.071 1348.604 L 4884.071 1384.864 L 4892.481 1384.864 L 4892.481 1370.274 L 4896.461 1370.274 C 4901.101 1370.274 4903.321 1372.044 4903.981 1376.024 C 4905.091 1380.224 4905.751 1383.544 4906.851 1384.874 L 4915.911 1384.874 C 4915.021 1383.554 4914.361 1381.334 4913.261 1375.804 C 4912.151 1370.934 4910.161 1368.284 4906.631 1366.964 L 4906.631 1366.954 Z M 4795.411 1284.234 C 4813.441 1284.234 4833.021 1282.674 4851.831 1269.344 L 4828.321 1407.254 C 4814.221 1404.114 4799.331 1402.554 4784.441 1402.554 L 4514.111 1402.554 C 4524.291 1376.694 4527.431 1350.054 4527.431 1324.204 L 4527.431 979.424 C 4527.431 953.554 4524.291 926.924 4514.111 901.064 L 4771.131 901.064 C 4786.011 901.064 4800.901 900.284 4815.011 897.154 L 4824.421 1029.574 C 4810.311 1020.944 4795.421 1019.384 4780.541 1019.384 L 4670.841 1019.384 L 4670.841 1085.214 L 4745.281 1085.214 C 4760.171 1085.214 4775.061 1083.644 4789.161 1078.934 L 4789.161 1201.964 C 4775.061 1197.264 4760.171 1195.684 4745.281 1195.684 L 4670.841 1195.684 L 4670.841 1284.234 L 4795.431 1284.234 L 4795.411 1284.234 Z M 2598.561 1585.884 C 2614.181 1585.884 2621.621 1596.664 2614.641 1613.834 C 2607.661 1631.014 2592.811 1641.784 2577.201 1641.784 C 2561.581 1641.784 2554.131 1631.014 2561.111 1613.834 C 2568.071 1596.664 2582.941 1585.884 2598.551 1585.884 L 2598.561 1585.884 Z M 3206.561 1702.384 C 3195.931 1722.074 3187.801 1737.114 3185.171 1741.944 C 3184.791 1742.634 3184.461 1743.384 3184.111 1744.104 C 3165.081 1778.954 3156.521 1784.054 3146.041 1784.054 C 3136.441 1784.054 3130.491 1775.944 3130.491 1763.094 C 3130.491 1742.934 3145.311 1712.874 3163.001 1697.074 C 3172.911 1688.224 3183.531 1681.944 3193.851 1681.944 C 3203.321 1681.944 3214.271 1688.034 3206.551 1702.384 L 3206.561 1702.384 Z M 2717.941 1702.274 C 2713.401 1710.754 2708.591 1719.714 2704.191 1727.884 C 2701.061 1733.684 2698.111 1739.224 2695.281 1744.594 C 2678.021 1776.234 2668.781 1784.054 2657.371 1784.054 C 2649.171 1784.054 2641.841 1777.944 2641.841 1763.024 C 2641.841 1741.864 2656.261 1714.534 2673.821 1697.504 C 2684.751 1686.884 2696.621 1681.934 2705.181 1681.934 C 2718.661 1681.934 2724.291 1691.624 2717.941 1702.264 L 2717.941 1702.274 Z M 2688.721 1908.804 C 2682.501 1908.804 2678.811 1903.504 2678.811 1892.444 C 2678.811 1875.644 2689.131 1848.924 2706.461 1814.874 C 2712.151 1828.464 2713.031 1846.214 2713.031 1856.974 C 2713.031 1887.724 2699.661 1908.804 2688.731 1908.804 L 2688.721 1908.804 Z M 2218.731 1792.864 C 2206.271 1792.864 2197.491 1788.244 2197.491 1779.284 C 2197.491 1768.154 2210.041 1761.664 2226.001 1761.664 C 2240.131 1761.664 2250.651 1763.554 2263.461 1768.864 C 2249.391 1786.064 2234.521 1792.864 2218.731 1792.864 Z M 2432.031 1578.964 C 2452.141 1548.274 2470.701 1539.434 2485.881 1539.434 C 2500.421 1539.434 2511.221 1549.564 2511.221 1568.494 C 2511.221 1608.464 2464.771 1655.904 2387.391 1660.884 C 2402.211 1631.734 2415.531 1604.164 2432.041 1578.964 L 2432.031 1578.964 Z M 3333.961 1533.184 L 3311.501 1533.184 C 3298.521 1533.184 3295.311 1535.714 3290.071 1546.484 C 3286.351 1554.134 3253.081 1616.074 3224.821 1668.524 C 3216.591 1660.674 3204.311 1655.634 3187.751 1655.634 C 3155.931 1655.634 3123.331 1676.034 3104.131 1705.624 C 3093.021 1722.734 3085.501 1740.504 3083.781 1759.754 C 3079.971 1764.214 3076.011 1768.424 3072.341 1771.624 C 3046.451 1794.154 3035.681 1788.034 3029.261 1780.264 C 3023.651 1773.484 3024.661 1768.644 3035.131 1747.434 C 3041.701 1734.134 3069.751 1683.684 3074.931 1674.354 C 3081.561 1662.414 3080.871 1659.144 3068.021 1659.144 L 3047.091 1659.144 C 3034.111 1659.144 3031.221 1661.834 3025.661 1672.454 C 3018.691 1685.754 2997.911 1724.284 2988.401 1742.084 C 2985.451 1747.614 2982.201 1753.904 2979.831 1760.214 C 2975.441 1765.404 2971.531 1769.494 2969.081 1771.624 C 2943.191 1794.154 2929.881 1793.214 2923.471 1785.444 C 2917.861 1778.664 2918.881 1773.834 2929.351 1752.614 C 2935.911 1739.304 2966.491 1683.674 2971.681 1674.344 C 2978.321 1662.404 2977.621 1659.134 2964.771 1659.134 L 2943.841 1659.134 C 2930.861 1659.134 2927.981 1661.824 2922.411 1672.444 C 2916.471 1683.774 2900.541 1713.364 2890.071 1732.904 C 2889.951 1733.034 2889.821 1733.084 2889.711 1733.304 C 2888.661 1735.454 2887.641 1737.394 2886.601 1739.374 C 2886.101 1740.304 2885.611 1741.234 2885.161 1742.074 C 2885.011 1742.354 2884.881 1742.664 2884.731 1742.954 C 2874.391 1761.984 2864.721 1772.894 2854.211 1779.674 C 2851.211 1781.614 2847.041 1782.914 2844.531 1782.894 C 2837.001 1782.844 2834.291 1778.834 2834.291 1773.574 C 2834.291 1768.734 2837.381 1761.724 2841.881 1752.614 C 2848.451 1739.304 2879.031 1683.674 2884.211 1674.344 C 2890.841 1662.404 2890.151 1659.134 2877.301 1659.134 L 2856.361 1659.134 C 2843.381 1659.134 2840.501 1661.824 2834.931 1672.444 C 2827.971 1685.744 2807.191 1724.274 2797.681 1742.074 C 2793.791 1749.344 2789.201 1758.204 2786.851 1766.604 C 2769.101 1784.244 2742.421 1790.144 2721.181 1787.074 C 2727.201 1776.134 2733.751 1764.624 2740.741 1752.614 C 2747.311 1739.304 2777.891 1683.674 2783.071 1674.344 C 2789.711 1662.404 2789.021 1659.134 2776.161 1659.134 L 2755.231 1659.134 C 2743.661 1659.134 2740.101 1661.324 2735.531 1669.304 C 2727.091 1659.984 2713.691 1655.624 2700.221 1655.624 C 2669.011 1655.624 2637.221 1672.914 2615.441 1705.614 C 2601.461 1726.594 2596.321 1743.984 2595.081 1761.624 C 2590.431 1766.214 2586.561 1770.104 2584.831 1771.614 C 2558.941 1794.144 2548.171 1788.024 2541.751 1780.254 C 2536.141 1773.474 2537.151 1768.634 2547.621 1747.424 C 2554.181 1734.124 2582.231 1683.674 2587.421 1674.344 C 2594.051 1662.404 2593.361 1659.134 2580.511 1659.134 L 2559.581 1659.134 C 2546.601 1659.134 2543.721 1661.824 2538.151 1672.444 C 2531.181 1685.744 2510.401 1724.274 2500.891 1742.074 C 2499.701 1744.314 2498.451 1746.684 2497.231 1749.124 C 2466.141 1776.534 2432.311 1788.924 2408.251 1788.924 C 2374.501 1788.924 2351.711 1774.664 2326.701 1761.834 C 2346.421 1735.594 2361.551 1709.874 2374.791 1685.094 C 2448.471 1684.354 2543.451 1647.934 2543.451 1568.794 C 2543.451 1536.884 2520.411 1513.164 2482.631 1513.164 C 2441.551 1513.164 2399.561 1537.314 2357.541 1604.044 C 2346.821 1621.064 2337.231 1637.974 2328.341 1654.404 C 2304.881 1645.554 2294.991 1629.254 2294.991 1610.954 C 2294.991 1585.254 2309.661 1565.704 2336.181 1556.654 C 2342.531 1554.484 2347.421 1553.784 2344.211 1547.344 C 2341.301 1541.494 2338.841 1539.634 2332.421 1541.214 C 2295.111 1550.364 2266.751 1579.254 2266.801 1613.184 C 2266.811 1640.644 2284.051 1664.064 2316.731 1676.204 C 2303.921 1700.634 2292.351 1723.464 2280.591 1743.214 C 2262.871 1737.964 2246.401 1735.344 2231.171 1735.344 C 2195.001 1735.344 2168.741 1754.474 2168.741 1780.264 C 2168.741 1804.764 2192.701 1819.434 2223.111 1819.434 C 2248.221 1819.434 2276.431 1809.774 2301.371 1788.854 C 2328.721 1804.604 2355.401 1819.384 2395.171 1819.384 C 2423.731 1819.384 2452.721 1808.204 2488.931 1776.214 C 2489.121 1789.914 2496.191 1800.514 2505.351 1809.634 C 2511.691 1815.934 2518.281 1819.304 2527.701 1819.304 C 2542.911 1819.304 2571.701 1806.024 2595.611 1782.294 C 2599.291 1805.284 2614.261 1819.654 2632.621 1819.654 C 2644.681 1819.654 2655.321 1814.344 2666.181 1803.114 C 2649.741 1839.544 2643.551 1863.254 2643.551 1885.654 C 2643.551 1913.984 2659.681 1932.754 2683.181 1932.754 C 2715.351 1932.754 2735.141 1907.404 2735.141 1864.924 C 2735.141 1842.684 2728.401 1820.554 2723.461 1809.484 C 2743.101 1809.314 2769.011 1799.814 2786.301 1787.854 C 2787.611 1793.774 2790.671 1799.964 2798.051 1807.914 C 2805.291 1815.714 2811.001 1819.314 2824.591 1819.314 C 2837.211 1819.314 2856.681 1812.624 2878.731 1792.384 C 2880.771 1798.774 2884.251 1804.314 2889.591 1809.644 C 2895.931 1815.944 2902.521 1819.314 2911.941 1819.314 C 2926.661 1819.314 2954.071 1806.874 2977.501 1784.574 C 2979.801 1794.354 2985.651 1802.464 2992.851 1809.644 C 2999.181 1815.944 3005.781 1819.314 3015.201 1819.314 C 3030.531 1819.314 3059.661 1805.844 3083.681 1781.754 C 3084.061 1781.374 3084.441 1780.974 3084.831 1780.584 C 3090.101 1803.954 3109.801 1819.664 3130.041 1819.664 C 3144.561 1819.664 3162.821 1809.824 3178.801 1791.794 C 3180.801 1798.444 3184.341 1804.154 3189.861 1809.644 C 3196.201 1815.944 3202.791 1819.314 3212.211 1819.314 C 3227.541 1819.314 3256.671 1805.844 3280.681 1781.754 C 3286.771 1775.644 3287.571 1773.084 3282.811 1769.034 C 3278.151 1765.064 3275.221 1766.514 3269.341 1771.624 C 3242.731 1794.784 3230.871 1794.084 3223.731 1785.444 C 3218.121 1778.664 3219.141 1773.834 3229.601 1752.614 C 3236.171 1739.304 3335.691 1557.724 3340.871 1548.394 C 3347.511 1536.454 3346.821 1533.194 3333.961 1533.194 L 3333.961 1533.184 Z M 3048.621 1613.834 C 3055.581 1596.664 3070.451 1585.884 3086.061 1585.884 C 3101.681 1585.884 3109.121 1596.664 3102.141 1613.834 C 3095.161 1631.014 3080.311 1641.784 3064.701 1641.784 C 3049.081 1641.784 3041.631 1631.014 3048.611 1613.834 L 3048.621 1613.834 Z M 3360.591 1402.554 C 3362.661 1376.644 3353.981 1345.654 3349.001 1322.084 C 3344.401 1300.254 3314.161 1192.934 3309.731 1177.234 C 3305.301 1192.934 3275.061 1300.254 3270.451 1322.084 C 3265.481 1345.654 3256.791 1376.644 3258.871 1402.554 L 3108.961 1402.554 C 3108.181 1376.694 3101.901 1350.054 3093.291 1324.194 L 2983.251 979.414 C 2974.621 953.564 2965.221 926.914 2946.421 901.064 L 3126.911 901.064 C 3125.981 926.504 3130.341 952.784 3137.391 979.414 L 3194.151 1191.914 C 3202.621 1160.584 3232.321 1050.174 3236.581 1029.384 C 3244.441 990.954 3244.041 973.134 3236.731 949.124 L 3384.431 949.124 C 3377.121 973.134 3376.721 990.954 3384.581 1029.384 C 3388.831 1050.174 3418.541 1160.554 3427.011 1191.914 L 3483.771 979.414 C 3490.831 952.784 3495.181 926.504 3494.251 901.064 L 3673.621 901.064 C 3654.821 926.914 3645.411 953.564 3636.791 979.414 L 3526.751 1324.194 C 3518.131 1350.054 3511.861 1376.694 3511.081 1402.554 L 3360.601 1402.554 L 3360.591 1402.554 Z M 4289.241 1702.904 C 4288.741 1703.794 4288.431 1704.504 4288.281 1705.054 C 4280.911 1718.584 4273.061 1732.794 4268.071 1741.944 C 4267.581 1742.854 4267.131 1743.834 4266.681 1744.794 C 4247.901 1779.054 4239.381 1784.054 4228.981 1784.054 C 4219.371 1784.054 4213.431 1775.944 4213.431 1763.094 C 4213.431 1742.934 4228.251 1712.874 4245.951 1697.074 C 4255.861 1688.224 4266.471 1681.944 4276.801 1681.944 C 4286.391 1681.944 4297.541 1688.164 4289.241 1702.904 Z M 3875.491 1730.154 C 3875.491 1740.614 3877.791 1749.714 3881.851 1757.274 C 3869.891 1778.104 3855.431 1790.484 3840.841 1790.484 C 3822.111 1790.484 3817.301 1767.844 3830.561 1735.334 C 3843.821 1702.804 3861.951 1684.794 3880.691 1684.794 C 3889.401 1684.794 3895.151 1689.244 3897.511 1697.224 C 3884.661 1699.064 3875.501 1711.934 3875.501 1730.144 L 3875.491 1730.154 Z M 3578.081 1682.544 C 3554.461 1683.834 3529.101 1685.174 3504.481 1686.264 C 3560.981 1606.484 3611.901 1560.764 3647.031 1544.414 C 3655.281 1540.564 3664.031 1540.244 3667.531 1543.504 C 3669.951 1545.744 3668.971 1548.414 3666.491 1552.654 C 3653.241 1575.324 3608.151 1636.324 3578.081 1682.534 L 3578.081 1682.544 Z M 4365.721 1769.034 C 4361.051 1765.064 4358.131 1766.514 4352.241 1771.624 C 4325.631 1794.784 4313.771 1794.084 4306.631 1785.444 C 4301.021 1778.664 4302.041 1773.834 4312.511 1752.614 C 4319.071 1739.304 4351.321 1683.504 4356.511 1674.174 C 4363.151 1662.234 4362.451 1658.974 4349.601 1658.974 L 4327.141 1658.974 C 4315.871 1658.974 4311.971 1660.894 4307.711 1668.464 C 4299.481 1660.654 4287.221 1655.634 4270.711 1655.634 C 4238.891 1655.634 4206.281 1676.034 4187.091 1705.624 C 4175.971 1722.754 4168.451 1740.524 4166.741 1759.784 C 4162.641 1764.654 4158.501 1769.114 4154.981 1772.054 C 4136.551 1787.414 4123.141 1792.244 4113.341 1781.124 C 4107.301 1774.274 4107.241 1769.904 4116.361 1751.424 C 4118.281 1747.544 4127.081 1730.534 4140.161 1706.464 C 4146.471 1694.864 4148.641 1685.914 4144.771 1676.824 C 4140.851 1667.614 4130.711 1655.634 4114.351 1655.634 C 4101.141 1655.634 4085.051 1660.174 4065.371 1675.154 L 4133.981 1548.384 C 4140.611 1536.444 4139.921 1533.184 4127.071 1533.184 L 4106.291 1533.184 C 4093.311 1533.184 4090.111 1535.714 4084.861 1546.484 L 3985.611 1729.864 C 3971.981 1751.394 3953.971 1764.704 3935.411 1764.704 C 3930.851 1764.704 3927.241 1763.464 3924.451 1761.274 C 3928.571 1753.894 3932.081 1745.994 3934.751 1737.604 C 3950.181 1689.164 3924.711 1656.034 3884.531 1656.034 C 3839.281 1656.034 3797.751 1689.164 3782.331 1737.604 C 3780.331 1743.884 3779.041 1749.904 3778.361 1755.634 C 3773.721 1761.304 3768.671 1766.874 3763.211 1771.614 C 3740.321 1791.534 3729.351 1789.934 3721.281 1780.034 C 3714.801 1772.074 3717.891 1764.734 3726.341 1747.604 C 3732.911 1734.304 3844.471 1530.094 3849.651 1520.754 C 3856.281 1508.814 3855.591 1505.554 3842.741 1505.554 L 3820.281 1505.554 C 3807.301 1505.554 3804.101 1508.094 3798.851 1518.854 C 3793.661 1529.514 3720.301 1664.634 3690.251 1719.934 C 3680.961 1735.964 3663.591 1755.414 3649.921 1767.024 C 3632.721 1781.634 3614.641 1788.774 3606.461 1788.774 C 3598.771 1788.774 3593.101 1781.864 3593.101 1775.644 C 3593.101 1770.624 3595.171 1765.104 3598.171 1757.674 C 3603.701 1743.974 3613.891 1726.914 3625.301 1707.694 C 3641.121 1705.954 3651.991 1704.674 3654.651 1704.234 C 3667.091 1702.164 3667.781 1699.404 3671.931 1690.064 C 3676.081 1680.734 3672.281 1677.734 3665.831 1677.974 C 3659.461 1678.204 3651.551 1678.574 3642.531 1679.034 C 3664.311 1644.514 3703.681 1587.124 3717.201 1563.414 C 3721.561 1555.764 3724.111 1550.084 3724.111 1545.614 C 3724.111 1537.484 3718.301 1528.964 3702.001 1521.304 C 3687.261 1514.394 3677.281 1511.744 3664.681 1511.744 C 3619.071 1511.744 3541.041 1565.594 3447.701 1688.284 C 3437.281 1688.534 3427.491 1688.674 3418.601 1688.674 C 3409.591 1688.674 3401.231 1687.314 3398.431 1685.914 C 3393.591 1683.494 3390.351 1683.284 3387.371 1686.264 C 3383.911 1689.724 3375.791 1701.464 3374.061 1707.004 C 3370.221 1719.304 3380.001 1726.524 3406.371 1726.524 C 3410.081 1726.524 3414.811 1726.374 3420.221 1726.134 C 3392.001 1767.264 3374.071 1801.514 3374.071 1808.934 C 3374.071 1811.694 3375.801 1814.124 3382.021 1814.124 L 3422.101 1814.124 C 3431.091 1814.124 3433.691 1809.554 3440.071 1796.154 C 3453.401 1768.094 3467.291 1743.064 3480.571 1721.874 C 3505.451 1719.764 3532.851 1717.184 3558.461 1714.654 C 3545.431 1737.784 3537.291 1757.674 3537.291 1772.894 C 3537.291 1785.684 3540.511 1791.784 3548.231 1802.034 C 3559.241 1816.644 3570.791 1819.434 3582.441 1819.434 C 3602.621 1819.434 3628.401 1811.834 3668.811 1772.344 C 3668.741 1773.884 3668.711 1775.444 3668.721 1777.034 C 3668.881 1790.794 3674.551 1800.484 3683.731 1809.634 C 3690.071 1815.934 3696.661 1819.304 3706.081 1819.304 C 3721.411 1819.304 3750.541 1805.834 3774.551 1781.744 C 3776.091 1780.204 3777.531 1778.724 3778.941 1777.254 C 3783.901 1803.214 3804.671 1819.184 3832.541 1819.184 C 3862.741 1819.184 3891.231 1804.384 3911.461 1780.184 C 3916.181 1781.424 3921.231 1782.094 3926.551 1782.094 C 3937.961 1782.094 3951.181 1779.204 3962.501 1772.604 L 3947.181 1800.904 C 3940.541 1812.844 3941.231 1816.104 3954.091 1816.104 L 3974.861 1816.104 C 3987.841 1816.104 3991.051 1813.564 3996.291 1802.804 L 4037.901 1725.944 C 4050.201 1704.494 4066.171 1691.334 4080.901 1691.334 C 4085.051 1691.334 4088.421 1692.514 4090.571 1695.484 C 4094.201 1700.484 4089.891 1708.024 4087.531 1712.354 C 4079.591 1727.094 4074.131 1737.404 4071.971 1741.384 C 4062.921 1758.014 4059.621 1766.704 4059.621 1776.684 C 4059.621 1787.344 4065.271 1798.734 4074.821 1808.244 C 4082.481 1815.854 4088.171 1819.304 4097.961 1819.304 C 4113.661 1819.304 4132.871 1811.364 4167.201 1781.414 C 4167.421 1781.224 4167.641 1780.994 4167.861 1780.804 C 4173.211 1804.044 4192.851 1819.654 4213.021 1819.654 C 4227.531 1819.654 4245.781 1809.824 4261.751 1791.814 C 4263.751 1798.444 4267.291 1804.144 4272.791 1809.634 C 4279.131 1815.934 4285.721 1819.304 4295.141 1819.304 C 4310.471 1819.304 4339.601 1805.834 4363.611 1781.744 C 4369.701 1775.634 4370.511 1773.074 4365.751 1769.024 L 4365.721 1769.034 Z M 4518.381 1683.084 L 4507.841 1690.554 C 4503.411 1693.704 4499.541 1697.574 4496.401 1701.994 L 4488.921 1712.534 C 4486.291 1716.224 4480.811 1716.224 4478.181 1712.534 L 4470.691 1701.994 C 4467.551 1697.564 4463.681 1693.704 4459.251 1690.554 L 4448.711 1683.084 C 4445.011 1680.454 4445.011 1674.964 4448.711 1672.334 L 4459.251 1664.854 C 4463.681 1661.704 4467.551 1657.844 4470.691 1653.414 L 4478.181 1642.874 C 4480.811 1639.184 4486.291 1639.184 4488.921 1642.874 L 4496.401 1653.414 C 4499.551 1657.844 4503.411 1661.714 4507.841 1664.854 L 4518.381 1672.334 C 4522.071 1674.964 4522.071 1680.454 4518.381 1683.084 Z M 3785.541 1235.434 L 3826.931 1088.484 L 3867.561 1235.434 L 3785.541 1235.434 Z M 4081.051 1402.564 C 4067.381 1382.164 4056.381 1357.154 4045.471 1324.404 C 4045.471 1324.404 3947.131 1021.264 3937.491 982.844 C 3930.371 954.454 3929.691 922.664 3936.951 901.004 L 3731.391 901.004 C 3738.521 922.154 3738.011 948.854 3731.781 979.364 C 3725.541 1009.884 3623.061 1324.184 3623.061 1324.184 C 3614.451 1350.054 3603.521 1378.684 3587.411 1402.564 L 3747.641 1402.564 C 3746.531 1380.674 3751.951 1358.684 3757.441 1336.724 L 3895.541 1336.724 C 3901.031 1358.684 3906.361 1382.414 3905.431 1402.564 L 4081.071 1402.564 L 4081.051 1402.564 Z M 4898.461 1394.824 C 4882.091 1394.824 4870.161 1381.994 4870.161 1365.854 C 4870.161 1349.934 4882.101 1336.894 4898.241 1336.894 C 4914.381 1336.894 4926.101 1349.934 4926.101 1366.074 C 4926.101 1382.004 4914.381 1394.824 4898.461 1394.824 Z M 4898.241 1329.594 C 4877.461 1329.594 4860.871 1345.744 4860.871 1365.854 C 4860.871 1386.424 4877.451 1402.564 4898.241 1402.564 C 4919.241 1402.564 4935.391 1386.414 4935.391 1365.854 C 4935.391 1345.744 4919.241 1329.594 4898.241 1329.594 Z M 3739.091 113.934 C 3739.091 72.724 3734.091 30.234 3724.091 -10.976 L 3982.691 -10.976 C 3967.701 30.244 3962.701 72.724 3962.701 113.934 L 3962.701 795.714 C 3859.811 798.014 3802.511 778.514 3726.701 684.104 L 3516.291 403.404 L 3516.291 625.184 C 3516.291 713.644 3494.661 769.074 3451.051 808.414 C 3414.561 841.324 3362.681 859.754 3295.191 860.244 C 3292.681 860.264 3290.171 860.244 3287.681 860.184 L 3287.681 113.934 L 3288.751 114.754 L 3288.111 113.934 C 3288.111 112.914 3288.071 111.884 3288.061 110.864 C 3299.381 102.584 3310.091 89.074 3317.711 65.924 C 3321.611 54.084 3324.431 44.924 3326.911 36.854 C 3330.831 24.134 3333.561 15.304 3337.831 4.994 C 3345.801 15.764 3351.881 22.814 3360.171 32.374 C 3364.371 37.224 3369.241 42.834 3375.381 50.144 C 3394.751 73.184 3418.571 85.864 3442.461 85.864 C 3445.851 85.864 3449.261 85.604 3452.581 85.084 C 3453.561 84.934 3454.441 84.854 3455.211 84.854 C 3457.061 84.854 3458.691 85.294 3462.861 86.554 C 3467.641 88.004 3474.181 89.984 3482.581 90.704 C 3487.771 91.144 3494.211 91.244 3498.691 91.244 C 3503.391 91.244 3515.161 91.134 3523.081 90.084 C 3527.041 89.564 3530.591 88.784 3533.841 87.834 C 3540.011 103.534 3549.781 119.894 3564.171 139.004 C 3591.471 175.234 3739.101 372.114 3739.101 372.114 L 3739.101 113.944 L 3739.091 113.934 Z M 4031.481 979.434 C 4019.321 942.014 4008.761 920.304 3994.781 901.074 L 4172.171 901.074 C 4172.171 926.934 4177.451 952.794 4184.971 979.434 L 4243.741 1197.934 C 4243.741 1197.934 4296.701 1001.364 4302.521 979.434 C 4309.841 951.874 4315.331 927.184 4315.331 901.074 L 4482.871 901.074 C 4466.671 923.344 4457.021 945.834 4446.041 979.434 C 4440.681 995.824 4336.001 1324.214 4336.001 1324.214 C 4327.371 1350.064 4321.111 1376.714 4320.321 1402.564 L 4157.151 1402.564 C 4156.371 1376.704 4150.101 1350.064 4141.481 1324.214 C 4141.481 1324.214 4039.541 1004.234 4031.471 979.434 L 4031.481 979.434 Z M 2794.291 172.754 C 2889.241 172.754 2947.941 257.824 2947.941 388.734 C 2947.941 522.234 2889.241 607.304 2794.291 607.304 C 2694.351 607.304 2635.621 522.234 2635.621 388.734 C 2635.621 257.824 2694.341 172.754 2794.291 172.754 Z M 2793.041 802.314 C 3026.651 802.314 3189.071 632.404 3189.071 388.794 C 3189.071 309.054 3171.221 236.914 3139.001 175.964 C 3094.341 175.054 3055.411 151.274 3040.861 138.554 C 3013.771 114.884 3002.771 112.334 2999.291 112.334 C 2997.741 112.334 2995.791 112.654 2993.321 113.064 C 2989.561 113.694 2984.881 114.474 2979.291 114.474 C 2961.831 114.474 2945.861 107.124 2925.901 89.904 C 2905.751 72.514 2899.711 46.084 2896.701 24.994 C 2894.481 9.454 2894.761 -2.596 2896.231 -12.636 C 2863.771 -20.536 2829.261 -24.706 2793.031 -24.706 C 2556.911 -24.706 2394.511 147.674 2394.511 388.804 C 2394.511 632.414 2556.911 802.324 2793.031 802.324 L 2793.041 802.314 Z M 2793.801 1211.514 C 2793.791 1212.644 2793.801 1350.234 2793.801 1351.384 C 2758.851 1379.334 2706.801 1411.184 2622.131 1411.184 C 2462.831 1411.184 2372.831 1313.164 2372.831 1154.104 C 2372.831 984.454 2483.141 890.814 2620.581 890.814 C 2724.651 890.814 2788.771 940.094 2788.481 1000.384 C 2788.221 1058.064 2746.301 1088.394 2686.681 1088.394 C 2698.791 1050.094 2675.001 1009.924 2623.101 1009.924 C 2557.391 1009.924 2520.651 1066.764 2520.651 1151.994 C 2520.651 1223.884 2547.431 1295.234 2630.991 1295.234 C 2644.711 1295.234 2655.031 1293.214 2664.081 1289.374 L 2664.081 1211.524 C 2664.081 1181.164 2658.561 1153.284 2650.761 1133.134 L 2803.581 1133.134 C 2797.741 1151.954 2793.821 1176.204 2793.811 1211.524 L 2793.801 1211.514 Z M 4408.051 287.894 L 4472.811 522.134 L 4342.051 522.134 L 4408.051 287.894 Z M 4297.241 683.614 L 4517.391 683.614 C 4526.141 718.604 4534.631 756.444 4533.171 788.564 L 4813.151 788.564 C 4791.361 756.034 4773.831 716.184 4756.421 663.954 C 4756.421 663.954 4599.641 180.714 4584.281 119.474 C 4572.931 74.234 4571.851 23.544 4583.431 -10.986 L 4255.751 -10.986 C 4267.111 22.724 4266.291 65.284 4256.351 113.934 C 4246.411 162.584 4083.031 663.624 4083.031 663.624 C 4069.291 704.864 4051.871 750.514 4026.201 788.564 L 4281.631 788.564 C 4279.871 753.674 4288.511 718.604 4297.261 683.614 L 4297.241 683.614 Z" style="fill:grey;"/>
</svg>