<svg xmlns="http://www.w3.org/2000/svg" viewBox="0 0 311.21 232.01">
<defs>
<style>.a{fill:gray}</style>
</defs>
<polygon class="a" points="127.29 144.13 127.29 232.01 143.67 220.98 160.05 232.01 160.05 144.13 127.29 144.13"/>
<polygon class="a" points="127.28 144.13 127.28 232.01 143.65 221.05 160.03 232.01 160.03 144.13 127.28 144.13"/>
<path class="a" d="M499.86,397.89c3.12.14-9-8-35.05,12.25-14.63,11.42-16.43,18.19-8.37,2.16,7.28-14.46,9.58-9.63,13.47-9.6.52,0,.75-.26.73-.61-.09-2.58-41.82-10.15-51.93-3.27-3.27,2.23-1.33,5.52,1.7,6.9,2.73,1.24,3.16,1.25,3.2,1.06.11-.67-4.93-1.39-4.38-4.22,1.28-6.56,31.25-5,41.42-3,6.2,1.19-2.3-1.68-13.31,9.34-13.6,13.62-22.51,28.56-37.52,27.88-11.16-.5-12.05-12.26-6-16.72,4.86-3.61,11.07-4.39,16.81.07,1,.77,1.51-.3,1.21-.76-.46-.72-8.84-7.31-18.66-.42-17,12,9.39,38,36.2,4.89,7.34-8.7,13.36-19.7,20-20.65-6.58,4.56-7.95,10.56-11.61,19.54-3.3,8.08-4.87,7.13-6.32,9.46-1,1.55-.23,3.14,1.2,3,1.21-.1,2.77-1.83,3.25-3.34.93-2.75,21.11-21.88,36-29.5-10.58,7.51-31.3,33.85-21.28,32.52,1.95-.25,4.48-9.38,14.79-22.07C481.68,405,486.7,398.79,499.86,397.89Z" transform="translate(-356.4 -396)"/>
<path class="a" d="M605.35,397.29c-16.08.91-21.32,20.4-32.64,20.46.12,0,.77-4.86-3.92-4.7-13.42.48-17.16,19.88-24.94,19.65-1.8-.05-2-1.3.46-4.79,3.1-4.31,17.8-25.58,29.54-29.71.42-.15.37-.86-.08-.82-18.49,1.6-29.85,32.93-41.41,35.41-2.52.52-5.09-.46-5.76-1.89-1.16-2.47,1.5-5.64,1.81-6.13,7.6,3.26,20.53-10.68,12.87-11.55-3.05-.35-5.62.87-8.12,2.44-8.65,5.42-8.78,14.14-13.73,16.32-3.27,1.45-4.93-.33-3.55-2.61,3.55-5.85,14.39-14.26,6.16-16.22-3.18-.76-7.85,2.31-11.68,4.91,9.85-12.94,13.85-16.86,21.48-20,.08,0,0-.23-.08-.25-1.52-.27-6.71.52-10.28,3.5-17.88,14.9-19.62,30.36-30.18,30.81-1.82.08-2.82-.06-3.61-1.65-3.45-6.78,11.58-19.58,12.55-14.64.15.8-.49,1.49-1.77,2.53-4.38,3.58,2.88,6.14,4.06-.75,1.06-6.31-5.68-5.35-10.64-1.22-9.76,8.09-7.55,14.79-13,16.13-3.7.91-2.29-9.33,7.44-18.24.37-.34,0-1.1-.42-.89-5.32,2.5-12.55,9.35-12.55,18.09,0,3.35,4.13,5.78,9.76.63,1.61,3.35,8.68,5,15,0,.29,1.64,1.37,3.25,3.29,3.07,1.79-12.18,16.39-22.72,18.91-19.59s-10.48,11.94-8.42,17.18c1.46,3.71,7.71,2.07,10.8-.82,1.61,3.34,9.76,5,16,0,.29,1.69,4.62,6.2,11.74.14a7,7,0,0,0,5,3.1c7.9.65,15.4-12.49,16.05-14.11a15.47,15.47,0,0,0,4.68-1.47c-14.66,19.25,6.87,20.31,17.27,5.22,2.72-3.94,6.42-10.12,2.07-11.53-6.31-2.06-19.74,12.68-7.16-1.86,4.1-4.74,8.1-9.73,17.06-13.4C606.44,397.6,605.91,397.19,605.35,397.29ZM530,422.58c9.17-10.6,13.23-8.81,10-4.65-3.72,4.71-11.26,6.15-10,4.64Zm36.71.48c-11,14.09-15.92,9.56-9.22.75,9.8-12.62,17-10.78,9.21-.76Zm19-4.65c11.36-6.63,9.1-1,3.86,5.34-14.85,18-21.47,5-3.88-5.32Z" transform="translate(-356.4 -396)"/>
<path class="a" d="M488,408.8c1,2.73,6.06,2.72,5,0S486.92,406.11,488,408.8Z" transform="translate(-356.4 -396)"/>
<path class="a" d="M470.35,506.34H442.61V458.59a4,4,0,0,1,.91-2.5h-11.7a4.09,4.09,0,0,1,.92,2.58v49.61h0V512c0,1.49.13,2.09-.91,3.61h39.56a4.13,4.13,0,0,1,2.3.9V505.42a4.13,4.13,0,0,1-2.58.92Z" transform="translate(-356.4 -396)"/>
<path class="a" d="M476.49,464.91v1a4.83,4.83,0,0,1,3.61-.91h15.32v48.23a4.13,4.13,0,0,1-.91,2.36h11.8a4.83,4.83,0,0,1-.91-3.61v-3.67h0V465h15.23c1.49,0,2.09-.13,3.61.91v-9.77H476.49Z" transform="translate(-356.4 -396)"/>
<path class="a" d="M408.54,456.09h-11a4.5,4.5,0,0,1,1.1,2.44v38c-2.13,6.74-9.27,10.33-17.81,10.33-8.26,0-13.54-6.12-13.54-16V458.62a4.06,4.06,0,0,1,.91-2.53H356.4a4,4,0,0,1,.92,2.58v4.67h0v29.72c0,13.35,9.67,23.92,23.51,23.92,9.35,0,14.35-3.79,17.81-7.17h0v5.78h10.68a4.83,4.83,0,0,1-.91-3.61V493.49c0-.15,0-.3,0-.45V463.38h0v-3.67c0-1.5-.13-2.09.91-3.61Z" transform="translate(-356.4 -396)"/>
<path class="a" d="M586.94,512.48c-.75-1-13.08-20.56-13.08-20.56,7.19-1.11,13.07-7.58,13.07-17.22,0-13.82-9-18.59-23.6-18.59H540.91a4.23,4.23,0,0,1,.9,2.22v55a4.23,4.23,0,0,1-.9,2.21h11.7a4.09,4.09,0,0,1-.92-2.5V493.31h12.84l7.79,13c3.53,5.68,4.82,7.08,3.72,9.29h13.64c-1-.68-1.32-1.18-2.74-3.1m-25.46-27.75h-9.78v-20h9.78c9.55,0,15.39,2.23,15.39,9.93s-5.93,10-15.39,10" transform="translate(-356.4 -396)"/>
<path class="a" d="M659.44,515.57c-1.06-.66-1.91-2.87-3.19-6l-19-49.27c-.68-1.81-1.24-2.53-.15-4.18H622.85c1.08,1.65.52,2.37-.15,4.18l-19,49.27c-1.27,3.16-2.12,5.37-3.18,6h13.88c-.94-1.58-1.5-3.78.65-9.36l2.68-7.37h24.48l2.71,7.37c2.15,5.59,1.6,7.78.65,9.36ZM630,490.71h-8.78L630,468.1l8.78,22.62Z" transform="translate(-356.4 -396)"/>
</svg>